<svg 
 xmlns="http://www.w3.org/2000/svg"
 xmlns:xlink="http://www.w3.org/1999/xlink"
 width="954px" height="725px">
<defs>
<linearGradient id="PSgrad_0" x1="0%" x2="0%" y1="100%" y2="0%">
  <stop offset="0%" stop-color="rgb(0,144,255)" stop-opacity="1" />
  <stop offset="100%" stop-color="rgb(0,186,255)" stop-opacity="1" />
</linearGradient>

</defs>
<path fill-rule="evenodd"  fill="url(#PSgrad_0)" name="新余市"
 d="M186.000,322.000 L186.000,328.000 L197.000,327.000 L199.000,330.000 L202.000,330.000 L204.000,331.000 L206.000,332.000 L208.000,330.000 L215.000,324.000 L220.000,324.000 L222.000,323.000 L225.000,323.000 L226.000,324.000 L228.000,323.000 L229.000,322.000 L233.000,321.000 L234.000,319.000 L237.000,320.000 L239.000,320.000 L240.000,321.000 L242.000,322.000 L243.000,324.000 L245.000,324.000 L248.000,324.000 L249.000,324.000 L253.000,323.000 L254.000,321.000 L258.000,321.000 L260.000,320.000 L262.000,319.000 L264.000,318.000 L268.000,318.000 L270.000,317.000 L270.000,314.000 L271.000,313.000 L274.000,314.000 L276.000,315.000 L279.000,315.000 L280.000,314.000 L279.000,311.000 L281.000,310.000 L282.000,309.000 L285.000,307.000 L288.000,306.000 L291.000,307.000 L293.000,308.000 L295.000,308.000 L297.000,308.000 L299.000,305.000 L302.000,304.000 L303.000,306.000 L304.000,308.000 L306.000,308.000 L308.000,306.000 L310.000,305.000 L312.000,305.000 L315.000,303.000 L318.000,302.000 L323.000,302.000 L326.000,302.000 L330.000,301.000 L335.000,299.000 L343.000,293.000 L346.000,291.000 L346.000,288.000 L342.000,288.000 L341.000,286.000 L339.000,288.000 L336.000,287.000 L332.000,287.000 L330.000,288.000 L328.000,287.000 L326.000,286.000 L325.000,288.000 L324.000,286.000 L323.000,286.000 L321.000,285.000 L320.000,287.000 L312.000,287.000 L309.000,285.000 L304.000,284.000 L302.000,282.000 L301.000,280.000 L300.000,278.000 L300.000,276.000 L301.000,275.000 L303.000,274.000 L303.000,273.000 L301.000,273.000 L303.000,270.000 L305.000,269.000 L306.000,266.000 L307.000,264.000 L307.000,262.000 L304.000,260.000 L297.000,261.000 L292.000,261.000 L291.000,262.000 L287.000,262.000 L287.000,260.000 L285.000,260.000 L284.000,262.000 L283.000,260.000 L280.000,260.000 L278.000,261.000 L275.000,261.000 L273.000,259.000 L269.000,258.000 L267.000,261.000 L266.000,263.000 L262.000,262.000 L260.000,264.000 L259.000,266.000 L257.000,267.000 L256.000,268.000 L254.000,267.000 L253.000,265.000 L243.000,265.000 L241.000,266.000 L240.000,267.000 L236.000,266.000 L234.000,264.000 L234.000,263.000 L234.000,262.000 L235.000,259.000 L234.000,257.000 L232.000,258.000 L229.000,257.000 L227.000,257.000 L224.000,258.000 L220.000,258.000 L218.000,258.000 L217.000,257.000 L209.000,257.000 L209.000,259.000 L206.000,259.000 L203.000,260.000 L196.000,261.000 L195.000,262.000 L193.000,263.000 L199.000,272.000 L198.000,274.000 L196.000,276.000 L194.000,276.000 L183.000,276.000 C183.000,276.000 181.714,277.286 182.000,278.000 C182.286,278.714 183.000,280.000 183.000,280.000 L182.000,281.000 L178.000,281.000 L176.000,284.000 L176.000,287.000 L179.000,290.000 L182.000,293.000 L187.000,293.000 L188.000,295.000 L190.000,292.000 L194.000,292.000 L195.000,293.000 L195.000,296.000 L193.000,298.000 L192.000,300.000 L192.000,301.000 L194.000,300.000 L195.000,302.000 L195.000,305.000 L195.000,306.000 L195.000,307.000 L194.000,309.000 L191.000,311.000 L189.000,313.000 L187.000,315.000 L186.000,317.000 L185.000,319.000 L186.000,320.000 L186.000,322.000 Z"/>
<path fill-rule="evenodd"  fill="url(#PSgrad_0)"  name="萍乡市"
 d="M67.000,405.000 L69.000,402.000 L72.000,401.000 L74.000,400.000 L75.000,397.000 L77.000,396.000 L80.000,394.000 L82.000,392.000 L82.000,390.000 L82.000,388.000 L84.000,385.000 L89.000,381.000 L90.000,381.000 L97.000,380.000 L100.000,375.000 L102.000,373.000 L104.000,372.000 L107.000,372.000 L110.000,370.000 L113.000,369.000 L112.000,367.000 L111.000,366.000 L109.000,361.000 L109.000,359.000 L106.000,361.000 L103.000,359.000 L100.000,358.000 L96.000,357.000 L96.000,355.000 L93.000,354.000 L91.000,352.000 L88.000,351.000 L87.000,350.000 L87.000,348.000 L89.000,345.000 L90.000,345.000 L111.000,345.000 L116.000,343.000 L118.000,340.000 L120.000,339.000 L122.000,338.000 L121.000,336.000 L120.000,335.000 L121.000,333.000 L123.000,332.000 L125.000,332.000 L125.000,330.000 L128.000,329.000 L132.000,328.000 L134.000,327.000 L134.000,325.000 L131.000,324.000 L126.000,321.000 L123.000,319.000 L122.000,317.000 L124.000,315.000 L122.000,312.000 L119.000,308.000 L114.000,304.000 L109.000,302.000 L106.000,300.000 L104.000,301.000 L103.000,303.000 L99.000,303.000 L98.000,304.000 L90.000,304.000 L88.000,302.000 L86.000,301.000 L84.000,303.000 L78.000,302.000 L76.000,300.000 L74.000,298.000 L75.000,295.000 L74.000,294.000 L73.000,295.000 L72.000,296.000 L70.000,296.000 L69.000,294.000 L69.000,292.000 L66.000,292.000 L63.000,292.000 L64.000,290.000 L64.000,289.000 L62.000,287.000 L66.000,284.000 L69.000,282.000 L72.000,283.000 L73.000,282.000 L76.000,281.000 L78.000,280.000 L80.000,279.000 L82.000,277.000 L81.000,275.000 L78.000,273.000 L76.000,274.000 L73.000,274.000 L71.000,273.000 L66.000,272.000 L65.000,271.000 L59.000,271.000 L57.000,270.000 L55.000,270.000 L53.000,272.000 L52.000,274.000 L47.000,273.000 L44.000,273.000 L42.000,275.000 L40.000,276.000 L36.000,277.000 L30.000,282.000 L29.000,286.000 L29.000,287.000 L33.000,289.000 L35.000,289.000 L36.000,292.000 L35.000,296.000 L24.000,303.000 L22.000,306.000 L17.000,310.000 L13.000,314.000 L5.000,318.000 L5.000,323.000 L3.000,327.000 L0.000,329.000 L1.000,333.000 L4.000,333.000 L6.000,333.000 L8.000,332.000 L7.000,337.000 L5.000,339.000 L3.000,339.000 L3.000,342.000 L4.000,345.000 L6.000,346.000 L8.000,348.000 L5.000,350.000 L6.000,354.000 L8.000,355.000 L12.000,355.000 L16.000,355.000 L20.000,357.000 L26.000,356.000 L31.000,354.000 L35.000,354.000 L41.000,352.000 L45.000,352.000 L49.000,352.000 L53.000,351.000 L57.000,350.000 L57.000,355.000 L53.000,360.000 L54.000,361.000 L56.000,362.000 L57.000,364.000 L55.000,366.000 L54.000,368.000 L50.000,373.000 L43.000,380.000 L39.000,383.000 L38.000,385.000 L38.000,388.000 L43.000,388.000 L45.000,389.000 L47.000,394.000 L50.000,396.000 L53.000,397.000 L56.000,400.000 L60.000,403.000 L62.000,405.000 L66.000,405.000 L67.000,405.000 Z"/>
<path fill-rule="evenodd"  fill="url(#PSgrad_0)" name="吉安市"
 d="M68.000,405.000 L69.000,402.000 L72.000,401.000 L75.000,401.000 L75.000,397.000 L78.000,396.000 L80.000,394.000 L82.000,393.000 L82.000,389.000 L86.000,383.000 L90.000,381.000 L97.000,381.000 L99.000,377.000 L101.000,374.000 L103.000,372.000 L107.000,372.000 L111.000,370.000 L113.000,368.000 L111.000,366.000 L110.000,362.000 L110.000,360.000 L107.000,359.000 L105.000,361.000 L103.000,359.000 L101.000,358.000 L98.000,358.000 L96.000,357.000 L97.000,355.000 L94.000,355.000 L92.000,352.000 L88.000,351.000 L86.000,350.000 L87.000,347.000 L89.000,345.000 L102.000,345.000 L103.000,344.000 L105.000,345.000 L110.000,345.000 L112.000,343.000 L115.000,343.000 L117.000,341.000 L118.000,340.000 L120.000,340.000 L122.000,338.000 L122.000,335.000 L120.000,335.000 L120.000,334.000 L122.000,333.000 L125.000,332.000 L127.000,330.000 L128.000,329.000 L132.000,328.000 L134.000,327.000 L135.000,326.000 L143.000,326.000 L146.000,328.000 L150.000,328.000 L153.000,330.000 L155.000,330.000 L156.000,329.000 L163.000,330.000 L166.000,328.000 L169.000,327.000 L172.000,328.000 L174.000,327.000 L176.000,326.000 L178.000,325.000 L180.000,323.000 L183.000,322.000 L185.000,323.000 L186.000,327.000 L188.000,328.000 L198.000,328.000 L202.000,330.000 L204.000,332.000 L207.000,331.000 L212.000,326.000 L214.000,324.000 L220.000,324.000 L221.000,322.000 L224.000,323.000 L225.000,324.000 L229.000,322.000 L233.000,321.000 L233.000,320.000 L237.000,320.000 L239.000,321.000 L241.000,322.000 L244.000,324.000 L246.000,324.000 L250.000,324.000 L256.000,322.000 L261.000,320.000 L264.000,318.000 L268.000,317.000 L270.000,316.000 L270.000,313.000 L274.000,314.000 L277.000,316.000 L281.000,316.000 L279.000,312.000 L280.000,311.000 L282.000,310.000 L282.000,308.000 L284.000,308.000 L285.000,308.000 L287.000,307.000 L289.000,306.000 L292.000,308.000 L294.000,309.000 L297.000,308.000 L299.000,305.000 L302.000,305.000 L303.000,306.000 L304.000,308.000 L305.000,308.000 L307.000,307.000 L309.000,305.000 L313.000,304.000 L316.000,303.000 L323.000,303.000 L330.000,301.000 L336.000,299.000 L346.000,292.000 L347.000,290.000 L347.000,288.000 L352.000,288.000 L353.000,286.000 L352.000,284.000 L353.000,283.000 L355.000,282.000 L355.000,280.000 L353.000,279.000 L354.000,277.000 L356.000,277.000 L357.000,277.000 L359.000,278.000 L360.000,276.000 L362.000,276.000 L363.000,279.000 L365.000,280.000 L368.000,280.000 L369.000,277.000 L370.000,277.000 L375.000,277.000 L380.000,278.000 L380.000,280.000 L377.000,282.000 L376.000,284.000 L380.000,286.000 L385.000,289.000 L390.000,289.000 L395.000,293.000 L407.000,294.000 L411.000,298.000 L412.000,300.000 L414.000,301.000 L417.000,302.000 L419.000,303.000 L419.000,307.000 L409.000,316.000 L404.000,317.000 L398.000,323.000 L397.000,325.000 L394.000,326.000 L394.000,332.000 L392.000,332.000 L402.000,342.000 L411.000,342.000 L416.000,342.000 L417.000,344.000 L416.000,346.000 L415.000,347.000 L413.000,349.000 L413.000,350.000 L413.000,352.000 L411.000,353.000 L408.000,355.000 L409.000,358.000 L410.000,360.000 L410.000,363.000 L411.000,363.000 L411.000,366.000 L409.000,366.000 L407.000,366.000 L401.000,367.000 L400.000,368.000 L399.000,369.000 L400.000,375.000 L401.000,376.000 L403.000,376.000 L405.000,376.000 L410.000,383.000 L413.000,385.000 L415.000,386.000 L418.000,388.000 L423.000,387.000 L428.000,386.000 L435.000,386.000 L438.000,390.000 L442.000,393.000 L444.000,398.000 L445.000,400.000 L448.000,401.000 L449.000,403.000 L450.000,403.000 L452.000,403.000 L455.000,403.000 L457.000,406.000 L453.000,407.000 L450.000,409.000 L446.000,412.000 L441.000,413.000 L439.000,414.000 L438.000,417.000 L437.000,418.000 L434.000,419.000 L431.000,423.000 L429.000,426.000 L425.000,425.000 L420.000,422.000 L416.000,420.000 L414.000,421.000 L411.000,423.000 L411.000,425.000 L412.000,426.000 L410.000,430.000 L409.000,430.000 L412.000,433.000 L417.000,433.000 L419.000,435.000 L418.000,438.000 L414.000,439.000 L414.000,441.000 L413.000,443.000 L409.000,445.000 L407.000,446.000 L405.000,446.000 L402.000,444.000 L391.000,445.000 L391.000,447.000 L384.000,447.000 L382.000,446.000 L381.000,443.000 L381.000,440.000 L377.000,441.000 L374.000,442.000 L371.000,442.000 L365.000,442.000 L364.000,441.000 L360.000,442.000 L358.000,444.000 L353.000,446.000 L348.000,446.000 L344.000,444.000 L343.000,443.000 L340.000,446.000 L335.000,445.000 L336.000,448.000 L335.000,449.000 L329.000,452.000 L322.000,458.000 L320.000,460.000 L321.000,462.000 L320.000,464.000 L314.000,463.000 L309.000,462.000 L306.000,463.000 L295.000,467.000 L288.000,473.000 L285.000,476.000 L283.000,480.000 L283.000,483.000 L285.000,486.000 L290.000,489.000 L291.000,494.000 L294.000,496.000 L292.000,497.000 L291.000,499.000 L286.000,502.000 L287.000,505.000 L292.000,505.000 L294.000,508.000 L296.000,509.000 L295.000,511.000 L293.000,511.000 L288.000,512.000 L283.000,510.000 L281.000,509.000 L279.000,506.000 L276.000,504.000 L265.000,504.000 L263.000,503.000 L258.000,503.000 L256.000,505.000 L253.000,505.000 L251.000,506.000 L250.000,506.000 L249.000,505.000 L247.000,504.000 L244.000,505.000 L241.000,507.000 L235.000,506.000 L233.000,506.000 L230.000,507.000 L228.000,506.000 L223.000,506.000 L223.000,509.000 L220.000,509.000 L216.000,508.000 L213.000,506.000 L211.000,504.000 L210.000,504.000 L209.000,504.000 L208.000,506.000 L206.000,504.000 L200.000,504.000 L200.000,501.000 L196.000,500.000 L193.000,500.000 L188.000,502.000 L184.000,502.000 L182.000,506.000 L179.000,509.000 L174.000,511.000 L170.000,512.000 L170.000,515.000 L168.000,516.000 L167.000,518.000 L165.000,519.000 L165.000,516.000 L161.000,516.000 L160.000,515.000 L156.000,515.000 L153.000,517.000 L148.000,520.000 L142.000,523.000 L138.000,525.000 L134.000,526.000 L127.000,528.000 L121.000,527.000 L119.000,527.000 L115.000,527.000 L113.000,528.000 L110.000,529.000 L107.000,529.000 L104.000,531.000 L98.000,532.000 L91.000,532.000 L88.000,532.000 L87.000,531.000 L84.000,530.000 L87.000,528.000 L89.000,526.000 L90.000,523.000 L93.000,522.000 L95.000,522.000 L98.000,523.000 L101.000,523.000 L105.000,521.000 L106.000,518.000 L111.000,517.000 L116.000,516.000 L122.000,515.000 L125.000,513.000 L128.000,512.000 L129.000,510.000 L126.000,504.000 L121.000,504.000 L119.000,503.000 L117.000,502.000 L112.000,503.000 L108.000,503.000 L103.000,504.000 L100.000,507.000 L94.000,508.000 L90.000,505.000 L85.000,506.000 L81.000,507.000 L77.000,509.000 L75.000,510.000 L73.000,509.000 L73.000,506.000 L76.000,505.000 L78.000,503.000 L80.000,500.000 L82.000,499.000 L85.000,498.000 L88.000,496.000 L87.000,495.000 L88.000,493.000 L91.000,491.000 L92.000,487.000 L90.000,484.000 L90.000,481.000 L93.000,479.000 L96.000,479.000 L100.000,478.000 L100.000,472.000 L104.000,469.000 L104.000,467.000 L99.000,467.000 L100.000,463.000 L103.000,459.000 L104.000,456.000 L102.000,454.000 L89.000,454.000 L83.000,450.000 L65.000,449.000 L56.000,443.000 L55.000,436.000 C55.000,436.000 55.500,433.167 55.000,432.000 C54.500,430.833 52.000,427.000 52.000,427.000 L55.000,424.000 L59.000,421.000 L62.000,420.000 L62.000,415.000 L64.000,413.000 L64.000,411.000 L66.000,410.000 L68.000,409.000 L68.000,405.000 Z"/>
<path fill-rule="evenodd"  fill="url(#PSgrad_0)" name="赣州市"
 d="M88.000,534.000 L88.000,538.000 L89.000,539.000 L87.000,542.000 L87.000,543.000 L88.000,546.000 L85.000,547.000 L84.000,549.000 L82.000,549.000 L77.000,553.000 L77.000,556.000 L76.000,557.000 L75.000,561.000 L70.000,564.000 L67.000,566.000 L68.000,570.000 L71.000,574.000 L74.000,578.000 L76.000,581.000 L79.000,582.000 L81.000,586.000 L81.000,590.000 L80.000,592.000 L75.000,593.000 L74.000,600.000 L82.000,601.000 L83.000,605.000 L82.000,607.000 L85.000,608.000 L89.000,608.000 L91.000,610.000 L92.000,612.000 L92.000,617.000 L90.000,618.000 L92.000,619.000 L92.000,620.000 L88.000,622.000 L87.000,625.000 L90.000,626.000 L92.000,625.000 L94.000,623.000 L99.000,623.000 L102.000,621.000 L105.000,619.000 L111.000,619.000 L113.000,619.000 L116.000,618.000 L121.000,618.000 L125.000,620.000 L135.000,620.000 L138.000,620.000 L140.000,618.000 L142.000,615.000 L150.000,616.000 L156.000,617.000 L160.000,616.000 L164.000,615.000 L168.000,609.000 L172.000,609.000 L175.000,610.000 L178.000,610.000 L180.000,609.000 L182.000,607.000 L184.000,606.000 L188.000,606.000 L191.000,606.000 L195.000,608.000 L198.000,608.000 L200.000,612.000 L205.000,616.000 L206.000,617.000 L214.000,618.000 L219.000,618.000 L222.000,619.000 L227.000,624.000 L228.000,627.000 L228.000,631.000 L227.000,632.000 L221.000,632.000 L219.000,634.000 L218.000,637.000 L224.000,638.000 L226.000,641.000 L226.000,644.000 L225.000,646.000 L219.000,648.000 L213.000,648.000 L210.000,650.000 L208.000,652.000 L196.000,652.000 L192.000,651.000 L189.000,654.000 L188.000,657.000 L185.000,659.000 L183.000,659.000 L182.000,661.000 L173.000,661.000 L171.000,665.000 L165.000,665.000 L164.000,668.000 L160.000,668.000 L160.000,674.000 L161.000,678.000 L156.000,680.000 L152.000,683.000 L151.000,686.000 L150.000,688.000 L149.000,690.000 L149.000,693.000 L143.000,696.000 L138.000,696.000 L137.000,700.000 L133.000,701.000 L121.000,702.000 L118.000,702.000 L118.000,704.000 L120.000,705.000 L133.000,705.000 L138.000,708.000 L141.000,714.000 L151.000,713.000 L158.000,718.000 L164.000,724.000 L166.000,725.000 L172.000,723.000 L175.000,721.000 L180.000,719.000 L184.000,717.000 L185.000,716.000 L190.000,719.000 L198.000,718.000 L201.000,714.000 L205.000,714.000 L207.000,714.000 L209.000,711.000 L214.000,716.000 L216.000,719.000 L220.000,720.000 L223.000,718.000 L224.000,714.000 L224.000,711.000 L226.000,709.000 L229.000,709.000 L233.000,710.000 L240.000,711.000 L244.000,712.000 L246.000,711.000 L249.000,711.000 L250.000,714.000 L252.000,715.000 L255.000,714.000 L256.000,710.000 L257.000,708.000 L259.000,703.000 L263.000,703.000 L266.000,704.000 L268.000,704.000 L269.000,702.000 L282.000,701.000 L287.000,698.000 L293.000,699.000 L296.000,701.000 L299.000,702.000 L303.000,701.000 L311.000,698.000 L315.000,696.000 L321.000,695.000 L327.000,694.000 L330.000,691.000 L338.000,691.000 L343.000,692.000 L346.000,692.000 L348.000,689.000 L353.000,688.000 L356.000,686.000 L359.000,687.000 L364.000,689.000 L368.000,689.000 L373.000,693.000 L379.000,697.000 L382.000,700.000 L384.000,703.000 L387.000,706.000 L389.000,709.000 L392.000,709.000 L394.000,708.000 L400.000,709.000 L405.000,710.000 L408.000,711.000 L409.000,714.000 L411.000,716.000 L413.000,718.000 L415.000,718.000 L421.000,718.000 L425.000,717.000 L429.000,716.000 L433.000,715.000 L437.000,717.000 L440.000,716.000 L436.000,713.000 L429.000,709.000 L429.000,705.000 L424.000,704.000 L425.000,702.000 L432.000,702.000 L432.000,700.000 L426.000,700.000 L424.000,697.000 L423.000,695.000 L424.000,691.000 L425.000,689.000 L426.000,686.000 L429.000,678.000 L431.000,677.000 L433.000,673.000 L436.000,671.000 L440.000,672.000 L443.000,673.000 L446.000,676.000 L450.000,676.000 L452.000,676.000 L449.000,674.000 L448.000,671.000 L447.000,669.000 L448.000,668.000 L448.000,666.000 L447.000,665.000 L448.000,663.000 L450.000,664.000 L453.000,664.000 L450.000,662.000 L446.000,660.000 L446.000,658.000 L447.000,656.000 L449.000,656.000 L451.000,654.000 L454.000,653.000 L454.000,651.000 L452.000,650.000 L449.000,650.000 L448.000,649.000 L446.000,646.000 L447.000,644.000 L446.000,642.000 L443.000,642.000 L443.000,638.000 L443.000,635.000 L443.000,632.000 L444.000,631.000 L446.000,630.000 L451.000,630.000 L457.000,628.000 L460.000,624.000 L461.000,621.000 L470.000,621.000 L471.000,617.000 L469.000,617.000 L469.000,610.000 L470.000,609.000 L471.000,608.000 L471.000,605.000 L474.000,604.000 L474.000,603.000 L472.000,600.000 L472.000,595.000 L474.000,594.000 L477.000,593.000 L477.000,589.000 L481.000,588.000 L481.000,584.000 L479.000,582.000 L479.000,579.000 L482.000,578.000 L483.000,576.000 L482.000,574.000 L482.000,570.000 L483.000,568.000 L491.000,568.000 L493.000,563.000 L497.000,561.000 L503.000,561.000 L505.000,561.000 L502.000,557.000 L498.000,554.000 L495.000,552.000 L496.000,548.000 L500.000,545.000 L504.000,545.000 L506.000,542.000 L521.000,542.000 C521.000,542.000 527.400,539.600 529.000,539.000 C530.600,538.400 534.000,535.000 534.000,535.000 L536.000,535.000 L542.000,533.000 L540.000,531.000 C540.000,531.000 542.800,527.400 547.000,525.000 C551.200,522.600 556.000,518.600 561.000,517.000 L565.000,515.000 L565.000,513.000 L564.000,510.000 L560.000,510.000 L557.000,511.000 L552.000,511.000 L551.000,511.000 L547.000,509.000 L547.000,503.000 L546.000,498.000 L553.000,491.000 L559.000,486.000 L563.000,483.000 L567.000,482.000 L567.000,480.000 L570.000,478.000 L572.000,476.000 L577.000,477.000 L579.000,479.000 L582.000,481.000 L588.000,481.000 L589.000,479.000 L588.000,476.000 L589.000,473.000 L592.000,472.000 L594.000,470.000 L594.000,469.000 L590.000,470.000 L586.000,466.000 L584.000,464.000 L582.000,462.000 L578.000,460.000 L576.000,459.000 L572.000,459.000 L571.000,460.000 L569.000,460.000 L568.000,459.000 L568.000,457.000 L566.000,457.000 L563.000,455.000 L561.000,453.000 L560.000,453.000 L558.000,455.000 L556.000,457.000 L553.000,458.000 L549.000,459.000 L547.000,460.000 L545.000,461.000 L544.000,465.000 L532.000,465.000 L531.000,466.000 L525.000,462.000 L521.000,461.000 L518.000,459.000 L521.000,457.000 L524.000,456.000 L524.000,455.000 L521.000,452.000 L519.000,451.000 L518.000,450.000 L523.000,448.000 L525.000,446.000 L522.000,444.000 L520.000,445.000 L515.000,446.000 L512.000,445.000 L509.000,444.000 L507.000,440.000 L506.000,439.000 L501.000,439.000 L499.000,437.000 L498.000,438.000 L496.000,437.000 L494.000,435.000 L497.000,433.000 L499.000,431.000 L499.000,428.000 L500.000,426.000 L500.000,424.000 L499.000,424.000 L499.000,422.000 L501.000,419.000 L503.000,417.000 L504.000,415.000 L503.000,414.000 L503.000,413.000 L502.000,413.000 L501.000,410.000 L501.000,405.000 L503.000,404.000 L507.000,400.000 L507.000,399.000 L507.000,395.000 L505.000,394.000 L503.000,395.000 L502.000,395.000 L500.000,393.000 L499.000,391.000 L498.000,388.000 L497.000,388.000 L496.000,387.000 L495.000,383.000 L492.000,383.000 L484.000,382.000 L481.000,384.000 L477.000,384.000 L472.000,386.000 L472.000,391.000 L473.000,394.000 L466.000,398.000 L464.000,402.000 L461.000,403.000 L460.000,405.000 L458.000,405.000 L455.000,407.000 L453.000,407.000 L448.000,411.000 L445.000,413.000 L441.000,413.000 L439.000,414.000 L437.000,418.000 L434.000,419.000 L431.000,423.000 L429.000,425.000 L425.000,425.000 L423.000,423.000 L418.000,421.000 L415.000,420.000 L412.000,422.000 L411.000,424.000 L411.000,425.000 L411.000,430.000 L411.000,431.000 L414.000,433.000 L418.000,432.000 L419.000,434.000 L418.000,438.000 L414.000,439.000 L414.000,440.000 L415.000,442.000 L407.000,446.000 L405.000,446.000 L402.000,445.000 L393.000,445.000 L391.000,446.000 L390.000,447.000 L384.000,446.000 L381.000,445.000 L381.000,443.000 L380.000,440.000 L377.000,440.000 L374.000,442.000 L370.000,443.000 L365.000,443.000 L365.000,441.000 L362.000,442.000 L359.000,444.000 L354.000,445.000 L349.000,445.000 L346.000,445.000 L343.000,442.000 L341.000,444.000 L337.000,445.000 L335.000,446.000 L335.000,447.000 L335.000,449.000 L330.000,452.000 L327.000,455.000 L323.000,457.000 L321.000,459.000 L320.000,462.000 L319.000,464.000 L316.000,464.000 L315.000,462.000 L308.000,463.000 L305.000,464.000 L300.000,465.000 L297.000,466.000 L290.000,472.000 L286.000,475.000 L283.000,478.000 L283.000,481.000 L283.000,483.000 L282.000,484.000 L288.000,487.000 L290.000,489.000 L291.000,493.000 L292.000,495.000 L294.000,496.000 L291.000,497.000 L291.000,500.000 L289.000,501.000 L286.000,502.000 L286.000,505.000 L288.000,506.000 L292.000,506.000 L293.000,507.000 L295.000,508.000 L295.000,511.000 L293.000,511.000 L292.000,512.000 L287.000,512.000 L285.000,510.000 L284.000,510.000 L282.000,510.000 L281.000,508.000 L280.000,508.000 L278.000,507.000 L278.000,505.000 L274.000,505.000 L269.000,505.000 L265.000,505.000 L263.000,503.000 L258.000,503.000 L254.000,505.000 L252.000,506.000 L250.000,507.000 L249.000,505.000 L248.000,504.000 L246.000,505.000 L243.000,505.000 L242.000,506.000 L235.000,507.000 L234.000,505.000 L233.000,506.000 L231.000,507.000 L229.000,507.000 L223.000,507.000 L222.000,508.000 L221.000,509.000 L220.000,509.000 L217.000,508.000 L215.000,507.000 L213.000,507.000 L211.000,506.000 L210.000,504.000 L208.000,504.000 L207.000,506.000 L207.000,504.000 L200.000,504.000 L199.000,501.000 L197.000,500.000 L194.000,500.000 L192.000,501.000 L188.000,502.000 L184.000,504.000 L182.000,507.000 L178.000,509.000 L174.000,511.000 L171.000,511.000 L170.000,516.000 L168.000,516.000 L166.000,519.000 L165.000,519.000 L165.000,517.000 L162.000,516.000 L159.000,516.000 L155.000,516.000 L150.000,519.000 L147.000,521.000 L143.000,522.000 L140.000,524.000 L139.000,525.000 L134.000,527.000 L126.000,528.000 L122.000,527.000 L121.000,527.000 L116.000,527.000 L112.000,528.000 L111.000,530.000 L106.000,530.000 L104.000,531.000 L102.000,532.000 L90.000,532.000 L88.000,533.000 L88.000,534.000 Z"/>
<path fill-rule="evenodd"  fill="rgb(60, 139, 250)" name="抚州市"
 d="M577.000,457.000 L574.000,458.000 L571.000,459.000 L569.000,459.000 L568.000,457.000 L565.000,455.000 L563.000,454.000 L561.000,453.000 L558.000,453.000 L557.000,455.000 L556.000,457.000 L553.000,458.000 L547.000,458.000 L546.000,460.000 L545.000,461.000 L545.000,463.000 L544.000,465.000 L533.000,465.000 L532.000,466.000 L528.000,465.000 L524.000,461.000 L520.000,461.000 L518.000,459.000 L520.000,458.000 L522.000,457.000 L523.000,456.000 L524.000,454.000 L523.000,453.000 L521.000,451.000 L519.000,451.000 L519.000,450.000 L524.000,448.000 L524.000,445.000 L521.000,445.000 L520.000,446.000 L515.000,446.000 L514.000,445.000 L512.000,445.000 L510.000,444.000 L507.000,439.000 L501.000,440.000 L501.000,439.000 L500.000,438.000 L497.000,438.000 L495.000,436.000 L498.000,433.000 L499.000,430.000 L500.000,428.000 L501.000,427.000 L501.000,425.000 L498.000,424.000 L501.000,419.000 L503.000,417.000 L504.000,414.000 L501.000,413.000 L501.000,407.000 L507.000,400.000 L507.000,395.000 L505.000,394.000 L503.000,395.000 L502.000,396.000 L499.000,393.000 L499.000,389.000 L496.000,388.000 L495.000,384.000 L492.000,383.000 L487.000,383.000 L483.000,383.000 L479.000,384.000 L475.000,385.000 L473.000,386.000 L473.000,391.000 L473.000,393.000 L473.000,394.000 L470.000,396.000 L466.000,398.000 L464.000,401.000 L461.000,402.000 L460.000,405.000 L457.000,405.000 L455.000,403.000 L453.000,403.000 L451.000,403.000 L450.000,403.000 L449.000,401.000 L446.000,400.000 L445.000,399.000 L444.000,397.000 L443.000,395.000 L441.000,392.000 L440.000,391.000 L438.000,390.000 L436.000,388.000 L435.000,386.000 L431.000,386.000 L428.000,386.000 L426.000,387.000 L421.000,387.000 L416.000,387.000 L415.000,385.000 L413.000,385.000 L410.000,383.000 L408.000,381.000 L407.000,378.000 L406.000,377.000 L404.000,376.000 L401.000,377.000 L400.000,374.000 L399.000,370.000 L402.000,367.000 L405.000,367.000 L410.000,366.000 L411.000,365.000 L411.000,363.000 L410.000,362.000 L409.000,357.000 L410.000,354.000 L413.000,352.000 L413.000,351.000 L412.000,349.000 L416.000,347.000 L417.000,345.000 L417.000,343.000 L416.000,342.000 L413.000,342.000 L411.000,342.000 L410.000,343.000 L404.000,343.000 L400.000,340.000 L396.000,337.000 L394.000,334.000 L393.000,333.000 L394.000,331.000 L395.000,326.000 L403.000,319.000 L409.000,315.000 L416.000,310.000 L420.000,305.000 L421.000,306.000 L425.000,304.000 L427.000,305.000 L431.000,305.000 L433.000,306.000 L439.000,306.000 L442.000,304.000 L442.000,300.000 L444.000,298.000 L444.000,297.000 L445.000,296.000 L444.000,294.000 L443.000,293.000 L445.000,290.000 L451.000,289.000 L454.000,287.000 L458.000,285.000 L469.000,284.000 L474.000,284.000 L483.000,279.000 L489.000,274.000 L493.000,271.000 L495.000,268.000 L495.000,266.000 L497.000,265.000 L498.000,265.000 L499.000,262.000 L499.000,260.000 L498.000,258.000 L498.000,256.000 L499.000,254.000 L492.000,254.000 L490.000,252.000 L489.000,252.000 L487.000,251.000 L487.000,247.000 L492.000,242.000 L494.000,241.000 L499.000,241.000 L502.000,242.000 L503.000,245.000 L506.000,247.000 L510.000,248.000 L513.000,248.000 L514.000,249.000 L515.000,249.000 L516.000,249.000 L517.000,246.000 L521.000,243.000 L525.000,242.000 L528.000,242.000 L531.000,242.000 L533.000,239.000 L534.000,239.000 L537.000,239.000 L540.000,241.000 L541.000,243.000 L543.000,244.000 L545.000,242.000 L546.000,239.000 L549.000,238.000 L562.000,238.000 L563.000,234.000 L565.000,233.000 L569.000,231.000 L569.000,229.000 L570.000,225.000 L574.000,221.000 L577.000,219.000 L579.000,218.000 L581.000,216.000 L581.000,213.000 L580.000,212.000 L580.000,209.000 L579.000,206.000 L581.000,207.000 L585.000,209.000 L585.000,213.000 L585.000,215.000 L587.000,216.000 L584.000,218.000 L582.000,219.000 L583.000,221.000 L585.000,222.000 L586.000,221.000 L594.000,221.000 L596.000,222.000 L600.000,223.000 L602.000,222.000 L609.000,221.000 L612.000,220.000 L614.000,218.000 L618.000,221.000 L622.000,224.000 L624.000,226.000 L627.000,229.000 L628.000,231.000 L630.000,233.000 L630.000,235.000 L629.000,237.000 L628.000,237.000 L624.000,238.000 L620.000,238.000 L618.000,236.000 L612.000,236.000 L609.000,239.000 L606.000,240.000 L606.000,242.000 L608.000,244.000 L613.000,245.000 L614.000,248.000 L620.000,248.000 L627.000,248.000 L628.000,250.000 L626.000,252.000 L626.000,254.000 L629.000,257.000 L630.000,257.000 L632.000,256.000 L637.000,258.000 L647.000,262.000 L649.000,260.000 L650.000,259.000 L653.000,259.000 L655.000,264.000 L661.000,265.000 L662.000,269.000 L672.000,274.000 L674.000,275.000 L674.000,279.000 L670.000,281.000 L668.000,285.000 L672.000,290.000 L674.000,290.000 L682.000,285.000 L685.000,286.000 L687.000,284.000 L688.000,283.000 L690.000,283.000 L695.000,285.000 L697.000,283.000 L702.000,286.000 L705.000,286.000 L706.000,284.000 L710.000,285.000 L719.000,290.000 L723.000,291.000 L724.000,298.000 L724.000,300.000 L720.000,301.000 L719.000,303.000 L717.000,305.000 L713.000,306.000 L706.000,307.000 L704.000,308.000 L704.000,311.000 L697.000,312.000 L695.000,310.000 L689.000,309.000 L684.000,311.000 L684.000,314.000 L686.000,316.000 L687.000,319.000 L686.000,319.000 L681.000,315.000 L678.000,312.000 L672.000,313.000 L669.000,315.000 L667.000,318.000 L667.000,320.000 L669.000,322.000 L670.000,324.000 L670.000,327.000 L672.000,329.000 L676.000,329.000 L681.000,327.000 L683.000,327.000 L684.000,329.000 L686.000,331.000 L686.000,335.000 L686.000,338.000 L688.000,341.000 L690.000,342.000 L691.000,346.000 L690.000,347.000 L687.000,349.000 L685.000,350.000 L685.000,353.000 L686.000,355.000 L686.000,357.000 L693.000,358.000 L694.000,360.000 L698.000,362.000 L699.000,365.000 L694.000,367.000 L687.000,373.000 L684.000,374.000 L679.000,376.000 L675.000,380.000 L673.000,382.000 L675.000,387.000 L663.000,389.000 L657.000,392.000 L654.000,395.000 L653.000,396.000 L652.000,396.000 L651.000,395.000 L644.000,395.000 L639.000,397.000 L637.000,398.000 L634.000,398.000 L624.000,398.000 L620.000,400.000 L618.000,401.000 L614.000,400.000 L605.000,401.000 L591.000,410.000 L586.000,415.000 L578.000,420.000 L576.000,422.000 L577.000,427.000 L580.000,429.000 L579.000,432.000 L573.000,434.000 L571.000,437.000 L572.000,441.000 L576.000,444.000 L579.000,445.000 L582.000,446.000 L581.000,449.000 L579.000,452.000 L578.000,455.000 L577.000,457.000 Z"/>
<path fill-rule="evenodd"  fill="url(#PSgrad_0)" name="鹰潭市"
 d="M722.000,291.000 L717.000,288.000 L714.000,287.000 L712.000,286.000 L710.000,284.000 L707.000,284.000 L705.000,286.000 L700.000,285.000 L698.000,283.000 L697.000,284.000 L695.000,285.000 L693.000,285.000 L691.000,283.000 L688.000,282.000 L687.000,285.000 L685.000,286.000 L683.000,284.000 L679.000,287.000 L676.000,288.000 L674.000,290.000 L671.000,289.000 L669.000,287.000 L667.000,285.000 L670.000,282.000 L672.000,280.000 L675.000,279.000 L675.000,275.000 L672.000,273.000 L668.000,272.000 L664.000,270.000 L660.000,268.000 L660.000,264.000 L656.000,264.000 L654.000,265.000 L654.000,263.000 L652.000,259.000 L650.000,258.000 L648.000,260.000 L646.000,261.000 L642.000,259.000 L638.000,258.000 L634.000,256.000 L631.000,257.000 L630.000,257.000 L627.000,256.000 L626.000,255.000 L625.000,252.000 L628.000,250.000 L628.000,247.000 L623.000,248.000 L621.000,248.000 L618.000,248.000 L615.000,247.000 L614.000,247.000 L612.000,245.000 L610.000,244.000 L607.000,243.000 L605.000,241.000 L607.000,240.000 L609.000,238.000 L613.000,237.000 L615.000,236.000 L618.000,237.000 L625.000,238.000 L628.000,237.000 L630.000,234.000 L630.000,232.000 L627.000,230.000 L626.000,228.000 L624.000,226.000 L628.000,223.000 L633.000,222.000 L639.000,222.000 L642.000,220.000 L641.000,217.000 L640.000,216.000 L645.000,212.000 L645.000,210.000 L643.000,207.000 L643.000,206.000 L648.000,205.000 L648.000,203.000 L660.000,203.000 L661.000,201.000 L665.000,205.000 L667.000,206.000 L669.000,204.000 L673.000,201.000 L676.000,199.000 L676.000,197.000 L675.000,195.000 L675.000,193.000 L676.000,192.000 L679.000,192.000 L682.000,192.000 L687.000,195.000 L691.000,196.000 L696.000,197.000 L702.000,195.000 L706.000,193.000 L709.000,192.000 L710.000,189.000 L714.000,190.000 L719.000,194.000 L723.000,197.000 L727.000,201.000 L727.000,205.000 L727.000,208.000 L728.000,211.000 L729.000,215.000 L727.000,217.000 L727.000,219.000 L728.000,221.000 L727.000,225.000 L725.000,226.000 L721.000,228.000 L719.000,231.000 L716.000,231.000 L718.000,235.000 L721.000,235.000 L723.000,239.000 L724.000,240.000 L722.000,242.000 L720.000,243.000 L720.000,245.000 L721.000,248.000 L719.000,249.000 L719.000,251.000 L724.000,252.000 L730.000,253.000 L736.000,254.000 L740.000,254.000 L741.000,255.000 L745.000,255.000 L747.000,256.000 L751.000,257.000 L756.000,263.000 L757.000,267.000 L756.000,269.000 L753.000,271.000 L751.000,277.000 L750.000,280.000 L747.000,283.000 L745.000,284.000 L739.000,285.000 L737.000,285.000 L733.000,288.000 L731.000,288.000 L730.000,285.000 L727.000,284.000 L725.000,285.000 L723.000,287.000 L721.000,287.000 L722.000,291.000 Z"/>
<path fill-rule="evenodd"  fill="url(#PSgrad_0)" name="上饶市"
 d="M751.000,279.000 L753.000,278.000 L756.000,278.000 L758.000,278.000 L762.000,277.000 L765.000,273.000 L768.000,272.000 L773.000,275.000 L778.000,277.000 L779.000,279.000 L781.000,283.000 L784.000,285.000 L785.000,289.000 L791.000,289.000 L796.000,291.000 L798.000,292.000 L800.000,292.000 L803.000,292.000 L808.000,295.000 L810.000,295.000 L813.000,293.000 L818.000,290.000 L818.000,285.000 L823.000,281.000 L829.000,279.000 L832.000,277.000 L837.000,278.000 L844.000,276.000 L846.000,274.000 L849.000,273.000 L853.000,274.000 L857.000,274.000 L859.000,272.000 L866.000,272.000 L870.000,273.000 L874.000,273.000 L875.000,274.000 L877.000,274.000 L878.000,269.000 L880.000,268.000 L884.000,268.000 L884.000,264.000 L887.000,263.000 L892.000,262.000 L895.000,263.000 L902.000,263.000 L906.000,261.000 L909.000,260.000 L913.000,260.000 L927.000,259.000 L929.000,257.000 L931.000,256.000 L932.000,254.000 L932.000,250.000 L934.000,250.000 L934.000,247.000 L932.000,246.000 L928.000,245.000 L925.000,244.000 L923.000,242.000 L921.000,242.000 L922.000,240.000 L926.000,240.000 L928.000,237.000 L931.000,236.000 L938.000,234.000 L942.000,232.000 L947.000,232.000 L951.000,230.000 L953.000,229.000 L954.000,227.000 L950.000,223.000 L949.000,221.000 L948.000,221.000 L945.000,220.000 L945.000,218.000 L946.000,216.000 L948.000,214.000 L950.000,213.000 L951.000,212.000 L952.000,211.000 L953.000,211.000 L954.000,209.000 L952.000,208.000 L948.000,208.000 L945.000,207.000 L943.000,207.000 L944.000,206.000 L946.000,205.000 L947.000,203.000 L944.000,203.000 L944.000,202.000 L942.000,200.000 L942.000,197.000 L942.000,194.000 L943.000,192.000 L944.000,190.000 L944.000,189.000 L944.000,186.000 L944.000,182.000 L941.000,182.000 L941.000,180.000 L939.000,179.000 L938.000,178.000 L938.000,176.000 L937.000,175.000 L937.000,173.000 L936.000,172.000 L935.000,168.000 L933.000,165.000 L931.000,165.000 L926.000,165.000 L924.000,164.000 L921.000,164.000 L919.000,163.000 L919.000,161.000 L916.000,158.000 L915.000,155.000 L913.000,151.000 L909.000,151.000 L905.000,151.000 L903.000,152.000 L900.000,153.000 L902.000,150.000 L904.000,149.000 L904.000,147.000 L900.000,147.000 L898.000,145.000 L896.000,143.000 L894.000,142.000 L891.000,142.000 L889.000,142.000 L887.000,142.000 L885.000,141.000 L886.000,139.000 L885.000,139.000 L883.000,139.000 L882.000,140.000 L880.000,141.000 L878.000,140.000 L878.000,136.000 L876.000,136.000 L874.000,135.000 L875.000,134.000 L875.000,133.000 L875.000,131.000 L872.000,130.000 L869.000,129.000 L869.000,127.000 L870.000,126.000 L870.000,125.000 L869.000,125.000 L868.000,124.000 L869.000,123.000 L868.000,119.000 L866.000,119.000 L867.000,114.000 L869.000,113.000 L875.000,112.000 L876.000,111.000 L876.000,108.000 L875.000,105.000 L875.000,103.000 L884.000,103.000 L891.000,103.000 L893.000,102.000 L893.000,100.000 L895.000,98.000 L897.000,97.000 L899.000,96.000 L901.000,96.000 L901.000,91.000 L899.000,90.000 L897.000,88.000 L893.000,88.000 L891.000,87.000 L886.000,86.000 L887.000,84.000 L888.000,83.000 L887.000,81.000 L886.000,80.000 L888.000,78.000 L889.000,76.000 L887.000,75.000 L881.000,72.000 L874.000,71.000 L871.000,70.000 L869.000,68.000 L866.000,66.000 L860.000,66.000 L859.000,67.000 L857.000,68.000 L855.000,67.000 L851.000,67.000 L849.000,69.000 L842.000,69.000 L840.000,69.000 L835.000,69.000 L829.000,68.000 L827.000,67.000 L825.000,66.000 L820.000,66.000 L817.000,68.000 L812.000,68.000 L810.000,69.000 L802.000,69.000 L800.000,72.000 L796.000,72.000 L793.000,71.000 L791.000,74.000 L788.000,75.000 L786.000,74.000 L784.000,76.000 L783.000,79.000 L781.000,80.000 L779.000,77.000 L778.000,78.000 L777.000,80.000 L774.000,82.000 L772.000,83.000 L769.000,85.000 L767.000,85.000 L767.000,83.000 L765.000,84.000 L765.000,85.000 L766.000,88.000 L765.000,89.000 L761.000,88.000 L761.000,91.000 L759.000,93.000 L760.000,94.000 L761.000,96.000 L759.000,97.000 L754.000,99.000 L751.000,99.000 L750.000,102.000 L751.000,102.000 L753.000,104.000 L751.000,106.000 L747.000,108.000 L743.000,109.000 L741.000,112.000 L740.000,115.000 L739.000,117.000 L745.000,122.000 L748.000,123.000 L751.000,123.000 L752.000,120.000 L758.000,120.000 L760.000,120.000 L762.000,122.000 L761.000,123.000 L761.000,125.000 L762.000,127.000 L765.000,128.000 L764.000,130.000 L763.000,132.000 L765.000,132.000 L766.000,133.000 L765.000,135.000 L762.000,136.000 L762.000,138.000 L760.000,140.000 L762.000,142.000 L759.000,144.000 L756.000,144.000 L756.000,146.000 L761.000,146.000 L763.000,150.000 L765.000,150.000 L767.000,152.000 L770.000,153.000 L773.000,153.000 L773.000,157.000 L772.000,159.000 L771.000,160.000 L772.000,166.000 L767.000,166.000 L766.000,164.000 L764.000,163.000 L763.000,162.000 L758.000,162.000 L751.000,162.000 L749.000,163.000 L743.000,164.000 L743.000,166.000 L745.000,167.000 L744.000,169.000 L742.000,170.000 L739.000,171.000 L736.000,171.000 L730.000,171.000 L727.000,171.000 L725.000,173.000 L723.000,174.000 L720.000,175.000 L718.000,176.000 L716.000,177.000 L715.000,178.000 L713.000,177.000 L713.000,174.000 L711.000,173.000 L708.000,173.000 L707.000,175.000 L703.000,175.000 L701.000,174.000 L700.000,173.000 L700.000,170.000 L697.000,170.000 L694.000,169.000 L694.000,167.000 L692.000,167.000 L690.000,168.000 L689.000,168.000 L689.000,167.000 L684.000,167.000 L681.000,165.000 L679.000,164.000 L677.000,166.000 L674.000,166.000 L673.000,164.000 L671.000,162.000 L670.000,161.000 L667.000,160.000 L664.000,158.000 L662.000,157.000 L659.000,156.000 L658.000,153.000 L661.000,150.000 L663.000,148.000 L664.000,147.000 L666.000,147.000 L667.000,146.000 L668.000,144.000 L669.000,141.000 L672.000,140.000 L672.000,137.000 L675.000,135.000 L675.000,133.000 L675.000,129.000 L679.000,128.000 L680.000,126.000 L680.000,125.000 L678.000,123.000 L675.000,121.000 L673.000,121.000 L672.000,120.000 L672.000,117.000 L670.000,115.000 L669.000,113.000 L669.000,110.000 L669.000,108.000 L669.000,107.000 L667.000,106.000 L667.000,105.000 L671.000,104.000 L673.000,103.000 L674.000,102.000 L679.000,101.000 L681.000,101.000 L681.000,99.000 L679.000,98.000 L678.000,97.000 L675.000,96.000 L675.000,93.000 L677.000,91.000 L679.000,90.000 L680.000,89.000 L679.000,85.000 L677.000,84.000 L675.000,83.000 L674.000,82.000 L675.000,79.000 L675.000,77.000 L675.000,73.000 L675.000,71.000 L674.000,68.000 L673.000,66.000 L672.000,64.000 L671.000,62.000 L672.000,61.000 L674.000,60.000 L678.000,58.000 L681.000,56.000 L682.000,54.000 L683.000,51.000 L684.000,50.000 L678.000,51.000 L677.000,52.000 L669.000,52.000 L664.000,52.000 L661.000,55.000 L658.000,56.000 L654.000,56.000 L649.000,58.000 L645.000,60.000 L641.000,61.000 L638.000,64.000 L636.000,66.000 L634.000,67.000 L624.000,67.000 L623.000,64.000 L621.000,64.000 L618.000,63.000 L615.000,65.000 L613.000,66.000 L611.000,66.000 L611.000,64.000 L607.000,63.000 L605.000,62.000 L602.000,62.000 L597.000,62.000 L594.000,65.000 L591.000,66.000 L586.000,66.000 L584.000,65.000 L582.000,63.000 L579.000,63.000 L578.000,63.000 L571.000,62.000 L570.000,63.000 L569.000,65.000 L569.000,68.000 L572.000,69.000 L574.000,70.000 L574.000,75.000 L573.000,76.000 L573.000,78.000 L575.000,79.000 L575.000,81.000 L574.000,82.000 L572.000,83.000 L572.000,85.000 L574.000,86.000 L577.000,90.000 L579.000,91.000 L579.000,93.000 L578.000,94.000 L577.000,95.000 L576.000,97.000 L578.000,99.000 L580.000,100.000 L582.000,103.000 L585.000,105.000 L587.000,109.000 L591.000,109.000 L593.000,110.000 L596.000,110.000 L595.000,112.000 L581.000,119.000 L578.000,120.000 L562.000,121.000 L560.000,124.000 L559.000,126.000 L549.000,134.000 L550.000,136.000 L550.000,139.000 L550.000,146.000 L549.000,147.000 L545.000,148.000 L537.000,157.000 L534.000,157.000 L528.000,158.000 L525.000,158.000 L524.000,157.000 L519.000,157.000 L519.000,158.000 L517.000,159.000 L517.000,161.000 L519.000,161.000 L519.000,166.000 L524.000,167.000 L527.000,168.000 L531.000,170.000 L533.000,171.000 L534.000,174.000 L535.000,174.000 L536.000,174.000 L539.000,173.000 L540.000,173.000 L543.000,175.000 L544.000,174.000 L546.000,174.000 L548.000,177.000 L553.000,177.000 L556.000,179.000 L558.000,181.000 L558.000,184.000 L558.000,187.000 L558.000,188.000 L558.000,189.000 L561.000,191.000 L565.000,197.000 L574.000,202.000 L578.000,206.000 L581.000,208.000 L585.000,209.000 L585.000,214.000 L585.000,216.000 L587.000,217.000 L583.000,218.000 L582.000,219.000 L584.000,221.000 L586.000,221.000 L592.000,220.000 L595.000,222.000 L598.000,222.000 L602.000,222.000 L608.000,221.000 L611.000,219.000 L613.000,218.000 L615.000,217.000 L617.000,220.000 L621.000,223.000 L624.000,225.000 L625.000,226.000 L627.000,224.000 L630.000,223.000 L631.000,221.000 L640.000,222.000 L642.000,221.000 L642.000,219.000 L640.000,217.000 L643.000,213.000 L645.000,211.000 L645.000,210.000 L644.000,208.000 L643.000,207.000 L643.000,206.000 L647.000,206.000 L648.000,203.000 L660.000,202.000 L661.000,201.000 L664.000,204.000 L667.000,206.000 L670.000,203.000 L674.000,201.000 L676.000,198.000 L675.000,196.000 L675.000,194.000 L677.000,192.000 L679.000,192.000 L682.000,192.000 L683.000,194.000 L685.000,194.000 L688.000,195.000 L692.000,196.000 L694.000,197.000 L696.000,197.000 L699.000,196.000 L704.000,194.000 L708.000,193.000 L710.000,192.000 L710.000,190.000 L712.000,190.000 L714.000,191.000 L715.000,191.000 L719.000,193.000 L720.000,194.000 L723.000,198.000 L725.000,200.000 L727.000,202.000 L727.000,206.000 L728.000,210.000 L730.000,212.000 L730.000,215.000 L727.000,216.000 L727.000,219.000 L729.000,221.000 L727.000,225.000 L724.000,226.000 L723.000,227.000 L721.000,228.000 L720.000,230.000 L718.000,231.000 L716.000,231.000 L717.000,234.000 L721.000,235.000 L722.000,236.000 L723.000,239.000 L724.000,240.000 L722.000,242.000 L720.000,243.000 L720.000,246.000 L721.000,249.000 L719.000,249.000 L719.000,251.000 L723.000,251.000 L728.000,253.000 L738.000,254.000 L743.000,255.000 L749.000,256.000 L754.000,260.000 L756.000,265.000 L756.000,267.000 L756.000,269.000 L753.000,273.000 L752.000,276.000 L751.000,278.000 L751.000,279.000 Z"/>
<path fill-rule="evenodd"  fill="url(#PSgrad_0)" name="景德镇市"
 d="M683.000,51.000 L681.000,56.000 L680.000,57.000 L675.000,60.000 L671.000,62.000 L672.000,64.000 L674.000,69.000 L675.000,71.000 L675.000,77.000 L675.000,80.000 L674.000,83.000 L677.000,85.000 L679.000,86.000 L679.000,89.000 L677.000,91.000 L675.000,94.000 L677.000,97.000 L679.000,98.000 L680.000,101.000 L678.000,101.000 L674.000,102.000 L672.000,103.000 L670.000,105.000 L668.000,105.000 L668.000,107.000 L669.000,108.000 L669.000,113.000 L671.000,117.000 L673.000,120.000 L676.000,121.000 L678.000,123.000 L680.000,124.000 L680.000,126.000 L679.000,128.000 L677.000,129.000 L675.000,129.000 L675.000,133.000 L675.000,134.000 L674.000,135.000 L673.000,137.000 L672.000,140.000 L668.000,141.000 L668.000,145.000 L667.000,146.000 L665.000,147.000 L662.000,148.000 L660.000,151.000 L658.000,154.000 L663.000,158.000 L668.000,160.000 L673.000,163.000 L675.000,166.000 L678.000,166.000 L679.000,165.000 L683.000,166.000 L689.000,167.000 L690.000,169.000 L692.000,168.000 L693.000,167.000 L695.000,170.000 L698.000,170.000 L700.000,170.000 L700.000,174.000 L703.000,174.000 L706.000,174.000 L708.000,173.000 L712.000,174.000 L713.000,177.000 L715.000,177.000 L719.000,176.000 L723.000,174.000 L727.000,171.000 L731.000,171.000 L734.000,171.000 L738.000,171.000 L741.000,170.000 L744.000,169.000 L744.000,166.000 L743.000,166.000 L743.000,163.000 L748.000,163.000 L751.000,162.000 L757.000,161.000 L760.000,162.000 L762.000,162.000 L765.000,163.000 L766.000,165.000 L771.000,165.000 L772.000,162.000 L772.000,159.000 L773.000,158.000 L774.000,156.000 L773.000,154.000 L770.000,153.000 L767.000,152.000 L766.000,151.000 L764.000,149.000 L761.000,147.000 L760.000,146.000 L756.000,146.000 L756.000,145.000 L759.000,144.000 L761.000,143.000 L762.000,142.000 L762.000,141.000 L760.000,139.000 L761.000,138.000 L762.000,135.000 L766.000,135.000 L766.000,133.000 L764.000,132.000 L763.000,130.000 L765.000,129.000 L764.000,127.000 L762.000,127.000 L761.000,126.000 L760.000,124.000 L761.000,123.000 L763.000,122.000 L763.000,121.000 L762.000,120.000 L760.000,119.000 L757.000,120.000 L753.000,121.000 L751.000,121.000 L750.000,122.000 L749.000,124.000 L746.000,122.000 L744.000,122.000 L742.000,120.000 L740.000,118.000 L739.000,116.000 L741.000,114.000 L742.000,112.000 L741.000,111.000 L744.000,109.000 L749.000,107.000 L753.000,106.000 L753.000,104.000 L751.000,103.000 L750.000,101.000 L752.000,100.000 L755.000,98.000 L758.000,97.000 L761.000,96.000 L760.000,95.000 L759.000,93.000 L760.000,91.000 L762.000,89.000 L766.000,88.000 L766.000,86.000 L766.000,84.000 L768.000,85.000 L772.000,83.000 L775.000,82.000 L777.000,81.000 L778.000,78.000 L779.000,77.000 L781.000,79.000 L784.000,79.000 L785.000,76.000 L787.000,75.000 L790.000,75.000 L791.000,74.000 L792.000,72.000 L794.000,72.000 L796.000,72.000 L800.000,72.000 L801.000,69.000 L800.000,67.000 L799.000,64.000 L796.000,63.000 L794.000,61.000 L790.000,61.000 L786.000,63.000 L782.000,64.000 L778.000,64.000 L773.000,64.000 L771.000,64.000 L769.000,61.000 L768.000,59.000 L769.000,56.000 L768.000,55.000 L762.000,55.000 L758.000,53.000 L756.000,52.000 L754.000,50.000 L755.000,47.000 L754.000,43.000 L749.000,41.000 L746.000,38.000 L747.000,35.000 L748.000,33.000 L748.000,30.000 L742.000,30.000 L740.000,32.000 L738.000,34.000 L736.000,35.000 L734.000,34.000 L733.000,33.000 L731.000,30.000 L730.000,30.000 L729.000,31.000 L724.000,31.000 L723.000,34.000 L719.000,34.000 L718.000,33.000 L716.000,32.000 L716.000,29.000 L717.000,26.000 L716.000,24.000 L715.000,22.000 L709.000,21.000 L704.000,20.000 L700.000,22.000 L694.000,22.000 L691.000,24.000 L690.000,26.000 L691.000,27.000 L691.000,28.000 L689.000,29.000 L687.000,30.000 L684.000,32.000 L680.000,32.000 L681.000,35.000 L684.000,36.000 L688.000,36.000 L691.000,38.000 L692.000,40.000 L690.000,41.000 L688.000,43.000 L687.000,44.000 L688.000,45.000 L689.000,47.000 L686.000,49.000 L683.000,50.000 L683.000,51.000 Z"/>
<path fill-rule="evenodd"  fill="url(#PSgrad_0)" name="九江市"
 d="M111.000,172.000 L114.000,169.000 L117.000,167.000 L120.000,167.000 L122.000,164.000 L124.000,163.000 L126.000,166.000 L128.000,167.000 L131.000,165.000 L135.000,169.000 L135.000,171.000 L137.000,173.000 L142.000,174.000 L143.000,177.000 L148.000,178.000 L152.000,180.000 L155.000,179.000 L158.000,179.000 L160.000,180.000 L163.000,178.000 L167.000,179.000 L172.000,180.000 L172.000,178.000 L172.000,176.000 L176.000,173.000 L185.000,173.000 L190.000,172.000 L194.000,171.000 L196.000,176.000 L200.000,178.000 L207.000,181.000 L223.000,182.000 L227.000,179.000 L235.000,178.000 L238.000,176.000 L237.000,172.000 L240.000,171.000 L247.000,175.000 L251.000,172.000 L254.000,170.000 L256.000,171.000 L259.000,168.000 L260.000,166.000 L259.000,164.000 L259.000,160.000 L263.000,158.000 L267.000,157.000 L269.000,155.000 L267.000,154.000 L267.000,151.000 L270.000,149.000 L271.000,145.000 L276.000,140.000 L279.000,140.000 L286.000,139.000 L290.000,136.000 L301.000,133.000 L315.000,130.000 C315.000,130.000 335.750,125.000 354.000,131.000 L355.000,133.000 L364.000,133.000 L363.000,135.000 L362.000,136.000 L365.000,138.000 L368.000,138.000 L369.000,140.000 L371.000,139.000 L375.000,138.000 L380.000,140.000 L389.000,145.000 L394.000,146.000 L397.000,145.000 L398.000,148.000 L401.000,148.000 L404.000,147.000 L409.000,148.000 L407.000,150.000 L412.000,150.000 L416.000,151.000 L419.000,150.000 L424.000,154.000 L427.000,154.000 L436.000,152.000 L437.000,148.000 L437.000,146.000 L438.000,144.000 L440.000,145.000 L445.000,144.000 L450.000,138.000 L454.000,136.000 L456.000,133.000 L455.000,131.000 L458.000,128.000 L460.000,129.000 L465.000,129.000 L467.000,128.000 L469.000,129.000 L472.000,127.000 L475.000,130.000 L482.000,126.000 L487.000,126.000 L503.000,126.000 L500.000,129.000 L499.000,130.000 L505.000,135.000 L508.000,135.000 L517.000,137.000 L518.000,140.000 L517.000,142.000 L522.000,141.000 L525.000,140.000 L525.000,137.000 L523.000,133.000 L522.000,129.000 L525.000,128.000 L527.000,127.000 L539.000,132.000 L543.000,134.000 L549.000,135.000 L555.000,130.000 L559.000,127.000 L563.000,120.000 L579.000,121.000 L596.000,112.000 L591.000,109.000 L587.000,108.000 L583.000,104.000 L576.000,97.000 L581.000,93.000 L578.000,90.000 L573.000,86.000 L572.000,83.000 L575.000,81.000 L575.000,79.000 L573.000,77.000 L574.000,74.000 L575.000,70.000 L571.000,69.000 L568.000,67.000 L570.000,63.000 L573.000,63.000 L578.000,63.000 L583.000,65.000 L585.000,67.000 L588.000,67.000 L594.000,66.000 L597.000,63.000 L600.000,63.000 L605.000,63.000 L607.000,63.000 L602.000,60.000 L598.000,58.000 L600.000,56.000 L602.000,53.000 L599.000,52.000 L603.000,46.000 L612.000,41.000 L616.000,38.000 L619.000,36.000 L625.000,37.000 C625.000,37.000 628.250,34.250 631.000,32.000 C633.750,29.750 640.000,25.600 642.000,24.000 C644.000,22.400 646.000,19.000 646.000,19.000 C646.000,19.000 645.800,17.000 645.000,16.000 C644.200,15.000 642.000,12.800 639.000,14.000 C636.000,15.200 632.000,16.000 632.000,16.000 L632.000,14.000 L633.000,11.000 L632.000,10.000 L629.000,11.000 L626.000,11.000 L619.000,4.000 L616.000,4.000 L611.000,4.000 L607.000,2.000 L601.000,1.000 C601.000,1.000 591.400,0.200 588.000,3.000 C584.600,5.800 582.000,7.800 582.000,9.000 C582.000,10.200 580.000,20.000 580.000,20.000 C580.000,20.000 579.400,22.200 578.000,23.000 C576.600,23.800 576.000,24.000 574.000,24.000 C572.000,24.000 563.000,24.000 563.000,24.000 L557.000,26.000 L541.000,31.000 L532.000,35.000 L529.000,37.000 L524.000,39.000 L520.000,39.000 L515.000,35.000 C515.000,35.000 512.200,33.200 507.000,33.000 C501.800,32.800 493.000,34.200 491.000,36.000 C489.000,37.800 474.600,44.800 468.000,46.000 C461.400,47.200 447.400,48.400 432.000,41.000 C432.000,41.000 415.600,32.400 410.000,31.000 L407.000,31.000 L382.000,32.000 L377.000,32.000 L374.000,34.000 L370.000,36.000 L368.000,39.000 L368.000,42.000 L368.000,44.000 L353.000,53.000 L345.000,56.000 L340.000,57.000 L336.000,58.000 L334.000,60.000 L329.000,60.000 L329.000,57.000 L329.000,55.000 L322.000,55.000 L308.000,55.000 L303.000,53.000 L301.000,51.000 C301.000,51.000 298.000,51.200 298.000,52.000 C298.000,52.800 298.000,55.000 298.000,55.000 L300.000,55.000 L304.000,56.000 L304.000,59.000 L303.000,62.000 L301.000,63.000 L303.000,65.000 L306.000,63.000 L309.000,63.000 L309.000,65.000 L307.000,65.000 L306.000,74.000 L301.000,74.000 L295.000,73.000 L296.000,70.000 L295.000,68.000 L291.000,68.000 L288.000,69.000 L284.000,70.000 L277.000,66.000 L274.000,68.000 L270.000,69.000 L268.000,70.000 L267.000,72.000 L271.000,74.000 L268.000,76.000 L262.000,76.000 L261.000,73.000 L259.000,75.000 L257.000,73.000 L256.000,73.000 L254.000,77.000 L251.000,79.000 L255.000,82.000 L259.000,81.000 L261.000,79.000 L264.000,79.000 L265.000,82.000 L262.000,83.000 L262.000,85.000 L260.000,86.000 L258.000,86.000 L255.000,90.000 L253.000,89.000 L251.000,88.000 L247.000,88.000 L244.000,89.000 L242.000,90.000 L240.000,91.000 L234.000,91.000 L232.000,91.000 L229.000,93.000 L226.000,93.000 L225.000,90.000 L223.000,89.000 L212.000,89.000 L208.000,91.000 L203.000,91.000 L198.000,94.000 L194.000,95.000 L190.000,96.000 L187.000,98.000 L183.000,98.000 L171.000,98.000 L169.000,95.000 L166.000,97.000 L159.000,97.000 L157.000,98.000 L155.000,100.000 L149.000,98.000 L146.000,95.000 L144.000,94.000 L140.000,94.000 L136.000,95.000 L133.000,96.000 L132.000,98.000 L131.000,102.000 L131.000,105.000 L131.000,110.000 L125.000,111.000 L117.000,112.000 L113.000,112.000 L96.000,114.000 L93.000,116.000 L90.000,119.000 L88.000,121.000 L82.000,123.000 L79.000,125.000 L77.000,127.000 L73.000,128.000 L73.000,132.000 L71.000,134.000 L71.000,136.000 L72.000,139.000 L74.000,141.000 L75.000,147.000 L77.000,148.000 L80.000,146.000 L82.000,147.000 L83.000,150.000 L86.000,152.000 L88.000,153.000 L91.000,152.000 L94.000,155.000 L94.000,157.000 L93.000,159.000 L97.000,161.000 L103.000,161.000 L107.000,161.000 L110.000,162.000 L111.000,164.000 L111.000,167.000 L109.000,168.000 L109.000,170.000 L111.000,172.000 Z"/>
<path fill-rule="evenodd"  fill="url(#PSgrad_0)" name="南昌市"
 d="M493.000,241.000 L499.000,241.000 L502.000,242.000 L503.000,245.000 L505.000,247.000 L510.000,248.000 L513.000,247.000 L515.000,249.000 L517.000,246.000 L524.000,242.000 L529.000,242.000 L531.000,241.000 L533.000,239.000 L536.000,239.000 L540.000,241.000 L542.000,243.000 L542.000,245.000 L546.000,239.000 L554.000,239.000 L560.000,239.000 L564.000,235.000 L564.000,233.000 L570.000,230.000 L569.000,225.000 C569.000,225.000 572.000,221.200 574.000,220.000 C576.000,218.800 580.000,218.000 580.000,218.000 L580.000,214.000 L580.000,211.000 L579.000,208.000 L578.000,205.000 C578.000,205.000 569.000,200.600 567.000,198.000 C565.000,195.400 562.000,192.000 562.000,192.000 L560.000,189.000 L557.000,189.000 L558.000,185.000 L557.000,182.000 L558.000,179.000 L555.000,177.000 L550.000,177.000 L547.000,176.000 L545.000,173.000 L543.000,173.000 L542.000,175.000 L540.000,173.000 L538.000,173.000 L535.000,173.000 L533.000,175.000 L533.000,171.000 L530.000,169.000 L527.000,168.000 L524.000,167.000 L519.000,166.000 L518.000,159.000 L521.000,157.000 L528.000,159.000 L534.000,158.000 L538.000,155.000 L542.000,150.000 L546.000,148.000 L550.000,146.000 L551.000,140.000 L549.000,138.000 L551.000,136.000 L549.000,135.000 C549.000,135.000 547.800,133.600 547.000,134.000 C546.200,134.400 539.000,132.000 539.000,132.000 L529.000,126.000 L526.000,126.000 L524.000,128.000 L522.000,129.000 L522.000,133.000 L525.000,136.000 L524.000,139.000 L524.000,141.000 L521.000,140.000 L517.000,141.000 L518.000,139.000 L517.000,136.000 L511.000,137.000 L504.000,135.000 L500.000,131.000 L499.000,129.000 C499.000,129.000 499.800,127.200 501.000,127.000 C502.200,126.800 504.000,126.000 504.000,126.000 L493.000,125.000 L487.000,126.000 L484.000,126.000 L477.000,129.000 L475.000,129.000 L472.000,127.000 L470.000,128.000 L467.000,129.000 L461.000,128.000 L458.000,129.000 L455.000,131.000 L456.000,134.000 L454.000,135.000 L449.000,139.000 L447.000,141.000 L445.000,144.000 L442.000,144.000 L440.000,145.000 L437.000,145.000 L436.000,149.000 L436.000,152.000 L433.000,153.000 L427.000,153.000 L424.000,154.000 L420.000,150.000 L417.000,151.000 L409.000,151.000 L406.000,149.000 L408.000,147.000 L404.000,148.000 C404.000,148.000 402.800,148.000 402.000,148.000 C401.200,148.000 397.000,147.000 397.000,147.000 L396.000,146.000 L389.000,145.000 L385.000,142.000 L377.000,138.000 L373.000,139.000 L369.000,140.000 L368.000,143.000 L367.000,143.000 L376.000,153.000 L378.000,155.000 L379.000,159.000 L377.000,161.000 L375.000,163.000 L373.000,161.000 L371.000,164.000 L370.000,167.000 L368.000,168.000 L366.000,170.000 L363.000,171.000 L365.000,176.000 L369.000,176.000 L371.000,175.000 L384.000,176.000 L384.000,179.000 L384.000,183.000 L382.000,185.000 L382.000,190.000 L381.000,192.000 L379.000,192.000 L379.000,195.000 L384.000,196.000 L387.000,194.000 L389.000,195.000 L390.000,197.000 L389.000,198.000 L386.000,198.000 L387.000,200.000 L387.000,204.000 L386.000,204.000 L385.000,207.000 L383.000,208.000 L384.000,212.000 L383.000,213.000 L384.000,215.000 L384.000,216.000 L382.000,218.000 L381.000,219.000 L384.000,220.000 L387.000,219.000 L390.000,219.000 L392.000,217.000 L393.000,216.000 L396.000,217.000 L397.000,219.000 L402.000,219.000 L404.000,220.000 L403.000,223.000 L401.000,223.000 L400.000,226.000 L402.000,227.000 L405.000,226.000 L407.000,224.000 L411.000,224.000 L415.000,224.000 L421.000,224.000 L424.000,223.000 L430.000,223.000 L432.000,221.000 L433.000,219.000 L438.000,219.000 L442.000,223.000 L444.000,226.000 L444.000,229.000 L444.000,231.000 L449.000,233.000 L453.000,231.000 L457.000,230.000 L460.000,231.000 L464.000,232.000 L461.000,233.000 L463.000,234.000 L465.000,234.000 L468.000,234.000 L470.000,234.000 L476.000,234.000 L480.000,233.000 L486.000,234.000 L490.000,237.000 L492.000,239.000 L493.000,241.000 Z"/>
<path fill-rule="evenodd"  fill="url(#PSgrad_0)" name="宜春市"
 d="M419.000,306.000 L424.000,304.000 L426.000,304.000 L431.000,305.000 L435.000,306.000 L439.000,306.000 L441.000,305.000 L442.000,301.000 L443.000,299.000 L444.000,297.000 L445.000,294.000 L444.000,293.000 L445.000,291.000 L448.000,290.000 L452.000,288.000 L455.000,286.000 L462.000,285.000 L474.000,284.000 L486.000,278.000 L493.000,271.000 L495.000,267.000 L495.000,266.000 L499.000,265.000 L499.000,262.000 L500.000,260.000 L498.000,257.000 L499.000,255.000 L498.000,254.000 L494.000,253.000 L489.000,252.000 L487.000,251.000 L486.000,248.000 L493.000,241.000 L493.000,239.000 L491.000,238.000 L488.000,235.000 L485.000,234.000 L482.000,232.000 L478.000,233.000 L476.000,233.000 L471.000,234.000 L468.000,233.000 L466.000,235.000 L462.000,234.000 L462.000,232.000 L458.000,230.000 L455.000,230.000 L453.000,230.000 L450.000,232.000 L448.000,233.000 L445.000,231.000 L444.000,230.000 L445.000,228.000 L444.000,225.000 L442.000,222.000 L439.000,219.000 L436.000,219.000 L433.000,219.000 L432.000,222.000 L430.000,223.000 L427.000,223.000 L423.000,224.000 L421.000,224.000 L419.000,225.000 L418.000,225.000 L416.000,223.000 L412.000,224.000 L410.000,225.000 L408.000,227.000 L406.000,226.000 L404.000,226.000 L403.000,227.000 L400.000,227.000 L400.000,225.000 L402.000,223.000 L403.000,222.000 L404.000,220.000 L402.000,219.000 L399.000,219.000 L397.000,219.000 L396.000,216.000 L393.000,216.000 L391.000,219.000 L388.000,220.000 L386.000,219.000 L385.000,220.000 L382.000,219.000 L382.000,218.000 C382.000,218.000 384.000,218.167 384.000,217.000 C384.000,215.833 385.000,215.000 385.000,215.000 L383.000,213.000 L383.000,211.000 L383.000,208.000 L385.000,207.000 L386.000,204.000 L387.000,203.000 L388.000,199.000 L386.000,199.000 L387.000,197.000 L390.000,197.000 L390.000,195.000 L386.000,194.000 L385.000,196.000 L379.000,196.000 L379.000,194.000 L378.000,192.000 L381.000,191.000 L382.000,190.000 L382.000,187.000 L383.000,184.000 L384.000,182.000 L384.000,180.000 L383.000,178.000 L385.000,177.000 L385.000,176.000 L369.000,176.000 L366.000,176.000 L365.000,175.000 L363.000,173.000 L363.000,171.000 L366.000,170.000 L367.000,168.000 L369.000,167.000 L370.000,167.000 L372.000,164.000 L372.000,162.000 L373.000,161.000 L374.000,162.000 L377.000,161.000 L379.000,159.000 L379.000,157.000 L378.000,155.000 L376.000,154.000 L375.000,152.000 L373.000,149.000 L369.000,145.000 L367.000,143.000 L369.000,142.000 L370.000,140.000 L369.000,139.000 L368.000,137.000 L365.000,138.000 L363.000,136.000 L362.000,135.000 L363.000,134.000 L363.000,132.000 L354.000,132.000 L353.000,131.000 L350.000,130.000 L347.000,129.000 L344.000,129.000 L340.000,128.000 L322.000,128.000 L311.000,130.000 L291.000,136.000 L287.000,138.000 L284.000,139.000 L276.000,139.000 L273.000,142.000 L273.000,143.000 L270.000,145.000 L270.000,149.000 L267.000,150.000 L267.000,154.000 L268.000,156.000 L266.000,157.000 L263.000,158.000 L260.000,159.000 L259.000,161.000 L259.000,164.000 L260.000,166.000 L260.000,167.000 L257.000,169.000 L254.000,171.000 L251.000,172.000 L249.000,173.000 L245.000,174.000 L243.000,173.000 L241.000,171.000 L237.000,173.000 L237.000,177.000 L233.000,178.000 L228.000,180.000 L224.000,182.000 L211.000,182.000 L204.000,180.000 L199.000,177.000 L196.000,175.000 L194.000,171.000 L188.000,171.000 L184.000,173.000 L177.000,173.000 L174.000,175.000 L172.000,176.000 L172.000,178.000 L173.000,180.000 L170.000,180.000 L168.000,179.000 L165.000,178.000 L162.000,178.000 L160.000,180.000 L157.000,178.000 L153.000,178.000 L150.000,180.000 L147.000,178.000 L140.000,173.000 L136.000,172.000 L134.000,171.000 L134.000,168.000 L131.000,165.000 L129.000,166.000 L126.000,166.000 L125.000,163.000 L123.000,164.000 L116.000,167.000 L112.000,171.000 L112.000,172.000 L111.000,174.000 L111.000,177.000 L110.000,178.000 L106.000,180.000 L106.000,182.000 L107.000,184.000 L107.000,187.000 L106.000,189.000 L106.000,190.000 L107.000,192.000 L106.000,193.000 L104.000,194.000 L102.000,195.000 L99.000,198.000 L101.000,200.000 L105.000,200.000 L108.000,200.000 L112.000,204.000 L115.000,205.000 L121.000,206.000 L123.000,209.000 L121.000,212.000 L118.000,213.000 L118.000,215.000 L121.000,217.000 L125.000,219.000 L128.000,220.000 L131.000,221.000 L131.000,226.000 L130.000,229.000 L126.000,231.000 L121.000,233.000 L119.000,235.000 L116.000,238.000 L111.000,238.000 L106.000,241.000 L103.000,245.000 L102.000,246.000 L96.000,247.000 L87.000,247.000 L83.000,249.000 L81.000,250.000 L85.000,255.000 L90.000,262.000 L90.000,264.000 L87.000,265.000 L85.000,266.000 L81.000,265.000 L75.000,265.000 L73.000,267.000 L76.000,269.000 L75.000,269.000 L68.000,269.000 L67.000,271.000 L66.000,272.000 L72.000,272.000 L72.000,274.000 L77.000,274.000 L78.000,273.000 L83.000,276.000 L82.000,277.000 L74.000,282.000 L72.000,283.000 L69.000,283.000 L65.000,285.000 L63.000,288.000 L64.000,291.000 L64.000,293.000 L69.000,293.000 L70.000,296.000 L74.000,295.000 L75.000,296.000 L76.000,300.000 L80.000,302.000 L86.000,302.000 L91.000,303.000 L99.000,303.000 L102.000,303.000 L105.000,300.000 L109.000,302.000 L116.000,306.000 L121.000,311.000 L123.000,314.000 L121.000,318.000 L130.000,323.000 L134.000,325.000 L139.000,325.000 L145.000,327.000 L151.000,328.000 C151.000,328.000 154.200,329.000 155.000,329.000 C155.800,329.000 162.000,329.000 162.000,329.000 L168.000,327.000 L172.000,328.000 L179.000,325.000 L184.000,321.000 L187.000,316.000 C187.000,316.000 188.800,311.800 190.000,311.000 C191.200,310.200 194.200,308.200 195.000,307.000 C195.800,305.800 195.000,303.000 195.000,303.000 L194.000,300.000 L192.000,301.000 L193.000,297.000 L195.000,296.000 L195.000,293.000 L191.000,291.000 L190.000,292.000 L188.000,294.000 L184.000,294.000 L179.000,291.000 L177.000,286.000 L178.000,282.000 L181.000,280.000 L183.000,280.000 L183.000,277.000 L194.000,277.000 L198.000,275.000 L199.000,274.000 L198.000,270.000 L196.000,267.000 L194.000,264.000 L193.000,263.000 L195.000,262.000 L198.000,260.000 L202.000,260.000 L208.000,259.000 L213.000,258.000 L219.000,258.000 L224.000,258.000 L227.000,257.000 L230.000,257.000 L235.000,257.000 L234.000,262.000 L234.000,264.000 L236.000,266.000 L241.000,266.000 L243.000,264.000 L252.000,264.000 L254.000,267.000 L259.000,267.000 L260.000,263.000 L266.000,262.000 L269.000,259.000 L270.000,258.000 L273.000,258.000 L276.000,260.000 L279.000,261.000 L283.000,261.000 L303.000,261.000 L307.000,261.000 L307.000,265.000 L306.000,267.000 L305.000,270.000 L302.000,270.000 L303.000,275.000 L300.000,276.000 L299.000,279.000 L302.000,280.000 L304.000,284.000 L310.000,285.000 L312.000,287.000 L320.000,287.000 L322.000,286.000 L324.000,286.000 L327.000,287.000 L334.000,287.000 L346.000,288.000 L352.000,287.000 L352.000,283.000 L355.000,283.000 L355.000,279.000 L353.000,279.000 L354.000,277.000 L357.000,277.000 L359.000,277.000 L361.000,275.000 L362.000,277.000 L364.000,280.000 L367.000,281.000 L368.000,280.000 L368.000,277.000 L371.000,277.000 L376.000,278.000 L381.000,278.000 L380.000,279.000 L377.000,281.000 L377.000,285.000 L381.000,287.000 L384.000,289.000 L388.000,289.000 L390.000,289.000 L396.000,293.000 L402.000,294.000 L407.000,294.000 L410.000,297.000 L412.000,300.000 L414.000,301.000 L417.000,301.000 L419.000,304.000 L419.000,306.000 Z"/>
</svg>